name rise30.8019peak61.5557fall86.2505.mot
datacolumns 19
datarows 14
range 13.62995000000000 13.65161300000000
endheader
time	ground_force1_vx	ground_force1_vy	ground_force1_vz	ground_force1_px	ground_force1_py	ground_force1_pz	ground_force2_vx	ground_force2_vy	ground_force2_vz	ground_force2_px	ground_force2_py	ground_force2_pz	ground_torque1_x	ground_torque1_y	ground_torque1_z	ground_torque2_x	ground_torque2_y	ground_torque2_z	
13.62995000000000	-7.19362600000000	45.71269500000000	-10.14283600000000	0.24341900000000	0.00000000000000	0.09538100000000	-47.56618400000000	746.37308399999995	-48.06271100000000	0.01007500000000	0.00000000000000	-0.07398500000000	0.00000000000000	-4.55346200000000	0.00000000000000	0.00000000000000	-7.21047700000000	0.00000000000000	
13.63161700000000	-7.60232300000000	52.18283900000000	-11.08814600000000	0.24793900000000	0.00000000000000	0.09590700000000	-48.37008200000000	744.41272900000001	-47.73735500000000	0.00942500000000	0.00000000000000	-0.07381900000000	0.00000000000000	-5.07175500000000	0.00000000000000	0.00000000000000	-7.25394100000000	0.00000000000000	
13.63328600000000	-7.84576500000000	58.57416400000000	-11.89086600000000	0.25207800000000	0.00000000000000	0.09641200000000	-49.20236300000000	742.37548400000003	-47.40462400000000	0.00877100000000	0.00000000000000	-0.07365100000000	0.00000000000000	-5.54072600000000	0.00000000000000	0.00000000000000	-7.30339900000000	0.00000000000000	
13.63495200000000	-7.91428400000000	64.82298600000000	-12.53627200000000	0.25588000000000	0.00000000000000	0.09689800000000	-50.06200900000000	740.25761499999999	-47.06410900000000	0.00811400000000	0.00000000000000	-0.07348200000000	0.00000000000000	-5.95170700000000	0.00000000000000	0.00000000000000	-7.35873800000000	0.00000000000000	
13.63662100000000	-7.80607400000000	70.89120200000001	-13.01832600000000	0.25938300000000	0.00000000000000	0.09736500000000	-50.94788300000000	738.05527300000006	-46.71539000000000	0.00745300000000	0.00000000000000	-0.07331100000000	0.00000000000000	-6.29986200000000	0.00000000000000	0.00000000000000	-7.41983100000000	0.00000000000000	
13.63828400000000	-7.52636100000000	76.76560800000000	-13.33897100000000	0.26261800000000	0.00000000000000	0.09781700000000	-51.85873500000000	735.76450199999999	-46.35803300000000	0.00678800000000	0.00000000000000	-0.07313900000000	0.00000000000000	-6.58402500000000	0.00000000000000	0.00000000000000	-7.48653500000000	0.00000000000000	
13.63994700000000	-7.08613800000000	82.45527100000000	-13.50689500000000	0.26561200000000	0.00000000000000	0.09825200000000	-52.79320100000000	733.38124900000003	-45.99160100000000	0.00612100000000	0.00000000000000	-0.07296500000000	0.00000000000000	-6.80625500000000	0.00000000000000	0.00000000000000	-7.55868700000000	0.00000000000000	
13.64162200000000	-6.50065200000000	87.98751300000001	-13.53595100000000	0.26838800000000	0.00000000000000	0.09867400000000	-53.74980200000000	730.90138100000001	-45.61564900000000	0.00545000000000	0.00000000000000	-0.07278900000000	0.00000000000000	-6.97119700000000	0.00000000000000	0.00000000000000	-7.63611000000000	0.00000000000000	
13.64328900000000	-5.78779200000000	93.40309300000000	-13.44342200000000	0.27096700000000	0.00000000000000	0.09908100000000	-54.72695200000000	728.32069100000001	-45.22973400000000	0.00477700000000	0.00000000000000	-0.07261200000000	0.00000000000000	-7.08534400000000	0.00000000000000	0.00000000000000	-7.71860900000000	0.00000000000000	
13.64494700000000	-4.96654500000000	98.75110900000000	-13.24831100000000	0.27336500000000	0.00000000000000	0.09947600000000	-55.72295100000000	725.63492099999996	-44.83341400000000	0.00410200000000	0.00000000000000	-0.07243400000000	0.00000000000000	-7.15626800000000	0.00000000000000	0.00000000000000	-7.80597200000000	0.00000000000000	
13.64661300000000	-4.05561800000000	104.08408700000000	-12.96977900000000	0.27559800000000	0.00000000000000	0.09985900000000	-56.73599700000000	722.83976500000006	-44.42625200000000	0.00342400000000	0.00000000000000	-0.07225300000000	0.00000000000000	-7.19189900000000	0.00000000000000	0.00000000000000	-7.89797300000000	0.00000000000000	
13.64828600000000	-3.07232600000000	109.45363000000000	-12.62584100000000	0.27767800000000	0.00000000000000	0.10023000000000	-57.76418100000000	719.93089399999997	-44.00782300000000	0.00274500000000	0.00000000000000	-0.07207200000000	0.00000000000000	-7.19990100000000	0.00000000000000	0.00000000000000	-7.99436800000000	0.00000000000000	
13.64995400000000	-2.03176900000000	114.90684899999999	-12.23236300000000	0.27961700000000	0.00000000000000	0.10059000000000	-58.80549600000000	716.90396399999997	-43.57771100000000	0.00206400000000	0.00000000000000	-0.07188800000000	0.00000000000000	-7.18716600000000	0.00000000000000	0.00000000000000	-8.09489800000000	0.00000000000000	
13.65161300000000	-0.94631800000000	120.48373700000000	-11.80240500000000	0.28142500000000	0.00000000000000	0.10093900000000	-59.85783600000000	713.75463500000001	-43.13551900000000	0.00138200000000	0.00000000000000	-0.07170400000000	0.00000000000000	-7.15947000000000	0.00000000000000	0.00000000000000	-8.19929000000000	0.00000000000000	
